<svg width="131" height="27" viewBox="0 0 131 27" fill="none" xmlns="http://www.w3.org/2000/svg">
<path d="M5.67773 26.5273C3.99023 26.457 2.66016 26 1.6875 25.1562C0.808594 24.3828 0.369141 23.4512 0.369141 22.3613C0.369141 21.2715 0.597656 20.4863 1.05469 20.0059C1.52344 19.5137 2.11523 19.2676 2.83008 19.2676C3.55664 19.2676 4.11328 19.4668 4.5 19.8652C4.89844 20.252 5.09766 20.7031 5.09766 21.2188C5.09766 21.7344 5.04492 22.1094 4.93945 22.3438C4.83398 22.5781 4.69922 22.7656 4.53516 22.9062C4.35938 23.0703 3.99023 23.2637 3.42773 23.4863C3.45117 23.9316 3.66211 24.3125 4.06055 24.6289C4.45898 24.9453 4.99805 25.1328 5.67773 25.1914V26.5273ZM8.77148 4.15039C8.77148 3.44727 8.4668 2.96094 7.85742 2.69141C7.58789 2.57422 7.2832 2.47461 6.94336 2.39258C6.60352 2.31055 6.26367 2.19922 5.92383 2.05859V1.02148H15.6094V2.05859C15.3047 2.19922 15.0059 2.31055 14.7129 2.39258C14.4316 2.47461 14.1797 2.57422 13.957 2.69141C13.4414 2.94922 13.1836 3.43555 13.1836 4.15039V19.8477C13.1836 22.0039 12.6797 23.6211 11.6719 24.6992C10.6641 25.7656 9.15234 26.3691 7.13672 26.5098V25.0859C7.74609 24.9219 8.17383 24.582 8.41992 24.0664C8.66602 23.5391 8.78906 22.7891 8.78906 21.8164L8.77148 4.15039ZM26.4551 24.5938C27.416 24.5938 28.2832 24.2188 29.0566 23.4688V25.4902C28.002 26.1465 26.7012 26.4746 25.1543 26.4746C22.5996 26.4746 21.0117 25.5781 20.3906 23.7852C20.1797 23.1641 20.0742 22.4141 20.0742 21.5352V11.5684C20.0742 10.959 19.8457 10.5312 19.3887 10.2852C19.1895 10.1797 18.9668 10.0977 18.7207 10.0391C18.4746 9.96875 18.2402 9.86328 18.0176 9.72266V8.65039H23.8359V21.8516C23.8359 23.6797 24.709 24.5938 26.4551 24.5938ZM30.5156 11.5684C30.5156 10.9473 30.2812 10.5195 29.8125 10.2852C29.6016 10.1797 29.3672 10.0977 29.1094 10.0391C28.8516 9.96875 28.5938 9.86328 28.3359 9.72266V8.65039H34.2598V23.1172C34.2598 23.7266 34.5 24.1484 34.9805 24.3828C35.1914 24.4883 35.4199 24.5762 35.666 24.6465C35.9121 24.7168 36.1465 24.8223 36.3691 24.9629V26H30.7617L30.5156 24.1367V11.5684ZM45.7559 25.0684C46.6348 24.9395 47.3379 24.6172 47.8652 24.1016C48.4043 23.5742 48.6738 22.9648 48.6738 22.2734C48.6738 21.582 48.5332 21.0488 48.252 20.6738C47.9824 20.2871 47.6191 19.959 47.1621 19.6895C46.7168 19.4082 46.207 19.1621 45.6328 18.9512C45.0586 18.7285 44.4727 18.5117 43.875 18.3008C43.2773 18.0781 42.6914 17.832 42.1172 17.5625C41.543 17.293 41.0273 16.9707 40.5703 16.5957C39.5742 15.7637 39.0762 14.6738 39.0762 13.3262C39.0762 12.1191 39.5332 11.0469 40.4473 10.1094C41.4785 9.03125 42.8262 8.42773 44.4902 8.29883V9.6875C43.8105 9.81641 43.2656 10.0977 42.8555 10.5312C42.457 10.9648 42.2578 11.4746 42.2578 12.0605C42.2578 12.6465 42.3984 13.1152 42.6797 13.4668C42.9609 13.8066 43.3301 14.1055 43.7871 14.3633C44.2559 14.6094 44.7832 14.8379 45.3691 15.0488C45.9668 15.248 46.5762 15.4648 47.1973 15.6992C47.8184 15.9219 48.4219 16.1738 49.0078 16.4551C49.6055 16.7246 50.1328 17.0645 50.5898 17.4746C51.6211 18.3887 52.1367 19.5723 52.1367 21.0254C52.1367 22.3027 51.6562 23.4453 50.6953 24.4531C49.5469 25.6602 47.9004 26.3281 45.7559 26.457V25.0684ZM46.9512 12.4297C46.9512 11.5508 47.2734 10.9883 47.918 10.7422C47.5547 10.0977 46.8984 9.72852 45.9492 9.63477V8.29883C47.4961 8.41602 48.7852 8.84375 49.8164 9.58203C50.8359 10.3203 51.3457 11.2109 51.3457 12.2539C51.3457 12.8867 51.1465 13.3848 50.748 13.748C50.3613 14.1113 49.8281 14.293 49.1484 14.293C48.4805 14.293 47.9473 14.123 47.5488 13.7832C47.1504 13.4434 46.9512 12.9922 46.9512 12.4297ZM43.2949 22.3262C43.2949 23.2051 42.9727 23.7676 42.3281 24.0137C42.6914 24.6582 43.3477 25.0273 44.2969 25.1211V26.457C42.7852 26.3633 41.4961 25.9355 40.4297 25.1738C39.4102 24.4355 38.9004 23.5449 38.9004 22.502C38.9004 21.8691 39.0938 21.3711 39.4805 21.0078C39.8789 20.6445 40.4121 20.4629 41.0801 20.4629C41.7598 20.4629 42.2988 20.6328 42.6973 20.9727C43.0957 21.3125 43.2949 21.7637 43.2949 22.3262ZM61.5762 8.9668H64.459V10.5137H61.5762V8.9668ZM60.1172 26.457C58.0898 26.3633 56.8945 25.4609 56.5312 23.75C56.4141 23.2109 56.3555 22.6074 56.3555 21.9395V10.5137H53.9824V9.44141C54.1582 9.28906 54.3457 9.16602 54.5449 9.07227C54.7559 8.9668 54.9609 8.86719 55.1602 8.77344C55.6758 8.51562 56.0508 8.20508 56.2852 7.8418C56.5195 7.4668 56.7129 7.06836 56.8652 6.64648C57.0293 6.21289 57.1641 5.78516 57.2695 5.36328C57.3867 4.92969 57.4922 4.50781 57.5859 4.09766C57.6914 3.6875 57.8203 3.2832 57.9727 2.88477L60.1172 2.7793V26.457ZM61.5762 24.8574C62.4551 24.8574 63.1406 24.2305 63.6328 22.9766C63.7852 22.5898 63.9316 22.168 64.0723 21.7109L65.1973 21.9746C64.8809 24.0723 64.1602 25.4141 63.0352 26C62.625 26.2109 62.1387 26.3516 61.5762 26.4219V24.8574ZM78.2402 1.02148V21.9746C78.2402 22.9004 78.3398 23.498 78.5391 23.7676C78.7383 24.0254 78.9199 24.1953 79.084 24.2773C79.2598 24.3477 79.4531 24.4062 79.6641 24.4531C80.2617 24.6055 80.7129 24.7754 81.0176 24.9629V26H71.1387V24.9629C71.3965 24.7988 71.7305 24.6641 72.1406 24.5586C72.5625 24.4414 72.8555 24.3477 73.0195 24.2773C73.1953 24.207 73.3477 24.0898 73.4766 23.9258C73.7227 23.5742 73.8457 22.9238 73.8457 21.9746V1.02148H78.2402ZM83.4609 1.02148C83.9414 1.02148 84.7441 0.933594 85.8691 0.757812V9.07227H84.6738C84.5098 8.62695 84.3633 8.1582 84.2344 7.66602C84.1172 7.16211 83.9824 6.66992 83.8301 6.18945C83.6777 5.69727 83.502 5.22852 83.3027 4.7832C83.1035 4.32617 82.8457 3.92773 82.5293 3.58789C81.8262 2.83789 80.8828 2.46289 79.6992 2.46289V1.02148H83.4609ZM66.2695 0.757812C66.832 0.933594 67.2598 1.02148 67.5527 1.02148H72.3867V2.46289C70.6992 2.46289 69.5039 3.24219 68.8008 4.80078C68.4609 5.53906 68.1914 6.33008 67.9922 7.17383C67.793 8.00586 67.6172 8.63867 67.4648 9.07227H66.2344V0.792969L66.2695 0.757812ZM96.8555 15.5234C96.8555 12.1484 96.0117 10.25 94.3242 9.82812V8.31641C96.5156 8.51562 98.2031 9.43555 99.3867 11.0762C100.5 12.6113 101.057 14.6094 101.057 17.0703H91.1074V15.5234H96.8555ZM94.3945 24.9277C96.4336 24.834 97.8809 23.873 98.7363 22.0449C98.9824 21.5176 99.1934 20.9785 99.3691 20.4277L100.881 20.9902C100.225 23.4395 98.8828 25.0859 96.8555 25.9297C96.1406 26.2227 95.3203 26.3984 94.3945 26.457V24.9277ZM89.6309 16.2793C89.6309 21.3184 90.7324 24.1543 92.9355 24.7871V26.4043C90.6387 26.1465 88.8164 25.1914 87.4688 23.5391C86.1211 21.9102 85.4473 19.8652 85.4473 17.4043C85.4473 14.8145 86.1211 12.6875 87.4688 11.0234C88.8281 9.34766 90.627 8.43945 92.8652 8.29883V9.75781C90.709 10.0156 89.6309 12.1895 89.6309 16.2793ZM110.971 25.0684C111.85 24.9395 112.553 24.6172 113.08 24.1016C113.619 23.5742 113.889 22.9648 113.889 22.2734C113.889 21.582 113.748 21.0488 113.467 20.6738C113.197 20.2871 112.834 19.959 112.377 19.6895C111.932 19.4082 111.422 19.1621 110.848 18.9512C110.273 18.7285 109.688 18.5117 109.09 18.3008C108.492 18.0781 107.906 17.832 107.332 17.5625C106.758 17.293 106.242 16.9707 105.785 16.5957C104.789 15.7637 104.291 14.6738 104.291 13.3262C104.291 12.1191 104.748 11.0469 105.662 10.1094C106.693 9.03125 108.041 8.42773 109.705 8.29883V9.6875C109.025 9.81641 108.48 10.0977 108.07 10.5312C107.672 10.9648 107.473 11.4746 107.473 12.0605C107.473 12.6465 107.613 13.1152 107.895 13.4668C108.176 13.8066 108.545 14.1055 109.002 14.3633C109.471 14.6094 109.998 14.8379 110.584 15.0488C111.182 15.248 111.791 15.4648 112.412 15.6992C113.033 15.9219 113.637 16.1738 114.223 16.4551C114.82 16.7246 115.348 17.0645 115.805 17.4746C116.836 18.3887 117.352 19.5723 117.352 21.0254C117.352 22.3027 116.871 23.4453 115.91 24.4531C114.762 25.6602 113.115 26.3281 110.971 26.457V25.0684ZM112.166 12.4297C112.166 11.5508 112.488 10.9883 113.133 10.7422C112.77 10.0977 112.113 9.72852 111.164 9.63477V8.29883C112.711 8.41602 114 8.84375 115.031 9.58203C116.051 10.3203 116.561 11.2109 116.561 12.2539C116.561 12.8867 116.361 13.3848 115.963 13.748C115.576 14.1113 115.043 14.293 114.363 14.293C113.695 14.293 113.162 14.123 112.764 13.7832C112.365 13.4434 112.166 12.9922 112.166 12.4297ZM108.51 22.3262C108.51 23.2051 108.188 23.7676 107.543 24.0137C107.906 24.6582 108.562 25.0273 109.512 25.1211V26.457C108 26.3633 106.711 25.9355 105.645 25.1738C104.625 24.4355 104.115 23.5449 104.115 22.502C104.115 21.8691 104.309 21.3711 104.695 21.0078C105.094 20.6445 105.627 20.4629 106.295 20.4629C106.975 20.4629 107.514 20.6328 107.912 20.9727C108.311 21.3125 108.51 21.7637 108.51 22.3262ZM126.791 8.9668H129.674V10.5137H126.791V8.9668ZM125.332 26.457C123.305 26.3633 122.109 25.4609 121.746 23.75C121.629 23.2109 121.57 22.6074 121.57 21.9395V10.5137H119.197V9.44141C119.373 9.28906 119.561 9.16602 119.76 9.07227C119.971 8.9668 120.176 8.86719 120.375 8.77344C120.891 8.51562 121.266 8.20508 121.5 7.8418C121.734 7.4668 121.928 7.06836 122.08 6.64648C122.244 6.21289 122.379 5.78516 122.484 5.36328C122.602 4.92969 122.707 4.50781 122.801 4.09766C122.906 3.6875 123.035 3.2832 123.188 2.88477L125.332 2.7793V26.457ZM126.791 24.8574C127.67 24.8574 128.355 24.2305 128.848 22.9766C129 22.5898 129.146 22.168 129.287 21.7109L130.412 21.9746C130.096 24.0723 129.375 25.4141 128.25 26C127.84 26.2109 127.354 26.3516 126.791 26.4219V24.8574Z" fill="white"/>
</svg>
